# Blender v3.3.1 OBJ File: 'Pyramid.blend'
# www.blender.org
mtllib Pyramid.mtl
o Cone
v 0.000000 -1.000000 -1.000000
v 0.866025 -1.000000 0.500000
v -0.866025 -1.000000 0.500000
v 0.000000 1.000000 0.000000
vt 0.350525 0.515285
vt 0.350525 0.984715
vt 0.015285 0.656114
vt 0.381095 0.697095
vt 0.695998 0.515285
vt 0.695998 0.878904
vt 0.350525 0.015285
vt 0.350525 0.484715
vt 0.015285 0.156114
vt 0.716335 0.015285
vt 0.716335 0.484715
vt 0.381095 0.156114
vn 0.8402 0.2425 -0.4851
vn 0.0000 -1.0000 0.0000
vn 0.0000 0.2425 0.9701
vn -0.8402 0.2425 -0.4851
usemtl Material.001
s off
f 1/1/1 4/2/1 2/3/1
f 1/4/2 2/5/2 3/6/2
f 2/7/3 4/8/3 3/9/3
f 3/10/4 4/11/4 1/12/4
